<?xml version="1.0" encoding="UTF-8"?>
<svg xmlns="http://www.w3.org/2000/svg" version="1.1" viewBox="0 0 210.3 37">
  <defs>
    <style>
      .cls-1 {
        fill: #35f;
      }
    </style>
  </defs>
  <!-- Generator: Adobe Illustrator 28.7.1, SVG Export Plug-In . SVG Version: 1.2.0 Build 142)  -->
  <g>
    <g id="Layer_1">
      <path class="cls-1" d="M31.1,13.6h0s0,0,0,0L17.5,0,3.9,13.6s0,0,0,0h0C1.8,15.7.4,18.5,0,21.4c-.4,2.9.3,5.9,1.8,8.4,1.5,2.5,3.9,4.5,6.6,5.5,2.8,1.1,5.8,1.2,8.6.3.2,0,.5,0,.7,0,2.8.9,5.9.8,8.6-.3,2.8-1.1,5.1-3,6.6-5.5,1.5-2.5,2.2-5.5,1.8-8.4-.4-2.9-1.7-5.7-3.8-7.8ZM8.7,22.6c0,0-.1.1-.2.2,0,0,0,.2,0,.3,0,2.4.7,4.8,2,6.8,0,0,0,.1,0,.2,0,0,0,.1,0,.1,0,0,0,0-.1,0,0,0-.1,0-.2,0-.9-.4-1.8-1-2.5-1.7-1.5-1.5-2.3-3.5-2.3-5.6,0-2.1.8-4.1,2.3-5.6l9.9-9.9,9.9,9.9c1.5,1.5,2.3,3.5,2.3,5.6,0,2.1-.8,4.1-2.3,5.6-.7.7-1.6,1.3-2.5,1.7,0,0-.1,0-.2,0,0,0-.1,0-.1,0,0,0,0,0,0-.1,0,0,0-.1,0-.2,1.3-2,1.9-4.4,2-6.8,0,0,0-.2,0-.3,0,0,0-.2-.2-.2l-4.7-5s-.1,0-.2,0-.1,0-.2,0c0,0,0,0,0,.2,0,0,0,.1,0,.2,1.8,3.3.3,8-2.3,10.6h0c-.4.4-.8.6-1.3.6-.5,0-1-.2-1.3-.6h0c-2.6-2.6-4.2-7.3-2.3-10.6,0,0,0-.1,0-.2,0,0,0-.1,0-.2,0,0-.1,0-.2,0s-.1,0-.2,0l-4.7,5Z"/>
      <g>
        <path d="M49,12.1h8.4v.7h-7.5v4.2h6.7v.7h-6.7v4.3h7.6v.7h-8.4v-10.8Z"/>
        <path d="M63.2,19.4l-3,3.5h-1l3.5-4-3.4-3.8h1l2.9,3.3,2.9-3.3h1l-3.4,3.8,3.5,4h-1l-3-3.5Z"/>
        <path d="M69.6,15h.8v1.8c.7-1,1.8-1.9,3.5-1.9s4.2,1.5,4.2,4.1h0c0,2.6-2.1,4.1-4.2,4.1s-2.8-.9-3.5-1.9v4.1h-.8v-10.3ZM77.2,19h0c0-2.1-1.6-3.4-3.4-3.4s-3.5,1.4-3.5,3.4h0c0,2,1.7,3.4,3.5,3.4s3.4-1.2,3.4-3.3Z"/>
        <path d="M80.1,19h0c0-2.3,1.7-4.1,4.1-4.1s3.9,1.8,3.9,4.1,0,.2,0,.3h-7.1c.2,2,1.7,3.1,3.4,3.1s2.2-.5,2.9-1.2l.6.5c-.9.9-1.9,1.5-3.5,1.5s-4.2-1.6-4.2-4.1ZM87.2,18.6c-.1-1.6-1.1-3-3.1-3s-3,1.3-3.2,3h6.2Z"/>
        <path d="M90.5,15h.8v2.2c.7-1.4,2.1-2.4,3.8-2.4v.8h0c-2,0-3.7,1.4-3.7,3.9v3.2h-.8v-7.8Z"/>
        <path d="M97.7,20.9v-5.1h-1.2v-.7h1.2v-2.5h.8v2.5h3v.7h-3v5.1c0,1.1.7,1.5,1.7,1.5s.8,0,1.3-.3v.7c-.4.2-.9.3-1.4.3-1.3,0-2.4-.7-2.4-2.2Z"/>
        <path d="M103,17.5h0c0-3.1,2.7-5.6,6.3-5.6s6.3,2.5,6.3,5.6h0c0,3.1-2.7,5.6-6.3,5.6s-6.3-2.5-6.3-5.6ZM112.3,17.5h0c0-1.6-1.2-2.9-3-2.9s-3,1.3-3,2.9h0c0,1.6,1.2,2.9,3,2.9s3-1.3,3-2.9Z"/>
        <path d="M117.1,20v-5.4h3.2v4.5c0,.9.5,1.4,1.3,1.4s1.3-.5,1.3-1.4v-4.5h3.2v8.3h-3.2v-1.1c-.6.7-1.4,1.3-2.7,1.3-1.9,0-3.1-1.2-3.1-3.1Z"/>
        <path d="M128.4,20.3v-3.4h-1.1v-2.4h1.1v-2.1h3.2v2.1h2.1v2.4h-2.1v2.8c0,.6.3.8.9.8s.8-.1,1.2-.3v2.3c-.6.3-1.3.5-2.2.5-1.9,0-3.1-.8-3.1-2.8Z"/>
        <path d="M134.4,21.8l1.2-1.8c1,.6,2.2,1,3.1,1s.8-.2.8-.4h0c0-.4-.5-.5-1.5-.7-1.8-.4-3.2-1-3.2-2.7h0c0-1.8,1.5-2.8,3.6-2.8s2.7.4,3.7,1l-1.1,1.8c-.9-.5-2-.8-2.7-.8s-.7.2-.7.4h0c0,.4.5.5,1.5.8,1.8.5,3.2,1,3.2,2.6h0c0,1.9-1.5,2.8-3.7,2.8s-3-.4-4.3-1.2Z"/>
        <path d="M143.3,18.7h0c0-2.4,2.1-4.4,5-4.4s5,2,5,4.3h0c0,2.4-2.1,4.4-5,4.4s-5-2-5-4.3ZM150.2,18.7h0c0-1-.8-1.9-1.9-1.9s-1.9.8-1.9,1.8h0c0,1,.8,1.9,1.9,1.9s1.9-.8,1.9-1.8Z"/>
        <path d="M154.6,20v-5.4h3.2v4.5c0,.9.5,1.4,1.3,1.4s1.3-.5,1.3-1.4v-4.5h3.2v8.3h-3.2v-1.1c-.6.7-1.4,1.3-2.7,1.3-1.9,0-3.1-1.2-3.1-3.1Z"/>
        <path d="M165.3,14.6h3.2v1.7c.5-1.1,1.4-1.9,2.9-1.8v3.1h-.3c-1.7,0-2.6.9-2.6,2.8v2.6h-3.2v-8.3Z"/>
        <path d="M172,18.7h0c0-2.4,2-4.4,4.9-4.4s3.1.7,3.9,1.9l-2.2,1.5c-.4-.6-.9-.9-1.7-.9s-1.8.8-1.8,1.8h0c0,1.1.7,1.9,1.8,1.9s1.2-.3,1.7-.9l2.1,1.4c-.8,1.1-2,1.9-4,1.9s-4.8-2-4.8-4.3Z"/>
        <path d="M181.9,11.6h3.3v2.2h-3.3v-2.2ZM182,14.6h3.2v8.3h-3.2v-8.3Z"/>
        <path d="M187,14.6h3.2v1.2c.6-.7,1.4-1.4,2.7-1.4,1.9,0,3.1,1.2,3.1,3.1v5.4h-3.2v-4.5c0-.9-.5-1.4-1.3-1.4s-1.3.5-1.3,1.4v4.5h-3.2v-8.3Z"/>
        <path d="M197.5,24.4l1-1.9c1,.5,1.9.8,3.2.8s2.4-.7,2.4-2v-.3c-.6.7-1.5,1.2-2.8,1.2-2.2,0-4-1.5-4-3.9h0c0-2.4,1.8-3.9,3.9-3.9s2.2.5,2.9,1.2v-1h3.2v6.3c0,1.5-.4,2.6-1.2,3.3-.8.8-2.1,1.2-4,1.2s-3.2-.3-4.5-1ZM204.1,18.3h0c0-1-.8-1.6-1.8-1.6s-1.9.7-1.9,1.6h0c0,1,.8,1.6,1.9,1.6s1.8-.7,1.8-1.6Z"/>
      </g>
    </g>
  </g>
</svg>