<?xml version="1.0" encoding="UTF-8"?>
<svg xmlns="http://www.w3.org/2000/svg" version="1.1" viewBox="0 0 25 25">
  <defs>
    <style>
      .cls-1 {
        fill: #35f;
      }
    </style>
  </defs>
  <!-- Generator: Adobe Illustrator 28.7.1, SVG Export Plug-In . SVG Version: 1.2.0 Build 142)  -->
  <g>
    <g id="Layer_1">
      <path class="cls-1" d="M20.5,3.5H4.5c-.5,0-1,.2-1.4.6-.4.4-.6.9-.6,1.4v4c0,.5.2,1,.6,1.4.4.4.9.6,1.4.6h16c.5,0,1-.2,1.4-.6.4-.4.6-.9.6-1.4v-4c0-.5-.2-1-.6-1.4-.4-.4-.9-.6-1.4-.6ZM15.5,7.5c0,.6-.4,1-1,1s-1-.4-1-1,.4-1,1-1,1,.4,1,1ZM19.5,7.5c0,.6-.4,1-1,1s-1-.4-1-1,.4-1,1-1,1,.4,1,1ZM20.5,13.5H4.5c-.5,0-1,.2-1.4.6-.4.4-.6.9-.6,1.4v4c0,.5.2,1,.6,1.4.4.4.9.6,1.4.6h16c.5,0,1-.2,1.4-.6.4-.4.6-.9.6-1.4v-4c0-.5-.2-1-.6-1.4-.4-.4-.9-.6-1.4-.6ZM15.5,17.5c0,.6-.4,1-1,1s-1-.4-1-1,.4-1,1-1,1,.4,1,1ZM19.5,17.5c0,.6-.4,1-1,1s-1-.4-1-1,.4-1,1-1,1,.4,1,1Z"/>
    </g>
  </g>
</svg>