<?xml version="1.0" encoding="UTF-8"?>
<svg xmlns="http://www.w3.org/2000/svg" version="1.1" viewBox="0 0 24 25">
  <defs>
    <style>
      .cls-1 {
        fill: #35f;
      }
    </style>
  </defs>
  <!-- Generator: Adobe Illustrator 28.7.1, SVG Export Plug-In . SVG Version: 1.2.0 Build 142)  -->
  <g>
    <g id="Layer_1">
      <path class="cls-1" d="M19,9.5c0-.9-.2-1.8-.5-2.7-.4-.8-.9-1.6-1.5-2.3-.6-.7-1.4-1.2-2.3-1.5-.8-.4-1.8-.5-2.7-.5s-1.8.2-2.7.5c-.8.4-1.6.9-2.3,1.5-.7.7-1.2,1.4-1.5,2.3-.4.8-.5,1.8-.5,2.7,0,1.4.4,2.7,1.1,3.8h0c2.4,3.7,5.9,9.2,5.9,9.2l5.9-9.2h0c.7-1.1,1.1-2.4,1.1-3.8ZM12,12.5c-.8,0-1.6-.3-2.1-.9-.6-.6-.9-1.3-.9-2.1s.3-1.6.9-2.1c.6-.6,1.3-.9,2.1-.9s1.6.3,2.1.9.9,1.3.9,2.1-.3,1.6-.9,2.1-1.3.9-2.1.9Z"/>
    </g>
  </g>
</svg>