<?xml version="1.0" encoding="UTF-8"?>
<svg xmlns="http://www.w3.org/2000/svg" version="1.1" viewBox="0 0 25 25">
  <defs>
    <style>
      .cls-1 {
        fill: #35f;
        fill-rule: evenodd;
      }
    </style>
  </defs>
  <!-- Generator: Adobe Illustrator 28.7.1, SVG Export Plug-In . SVG Version: 1.2.0 Build 142)  -->
  <g>
    <g id="Layer_1">
      <path class="cls-1" d="M12.5,11.3c1,0,1.9-.4,2.5-1.1.7-.7,1.1-1.6,1.1-2.5s-.4-1.9-1.1-2.5-1.6-1.1-2.5-1.1-1.9.4-2.5,1.1c-.7.7-1.1,1.6-1.1,2.5s.4,1.9,1.1,2.5c.7.7,1.6,1.1,2.5,1.1ZM7.4,22.1c-1.8,0-3.4-1.5-2.7-3.2.4-1,1-1.9,1.8-2.7.8-.8,1.7-1.4,2.7-1.8,1-.4,2.1-.6,3.2-.6s2.2.2,3.2.6c1,.4,1.9,1,2.7,1.8.8.8,1.4,1.7,1.8,2.7.7,1.7-.8,3.2-2.7,3.2H7.4Z"/>
    </g>
  </g>
</svg>